<svg width="59" height="61" viewBox="0 0 59 61" fill="none" xmlns="http://www.w3.org/2000/svg">
<g clip-path="url(#clip0_55_26)">
<path fill-rule="evenodd" clip-rule="evenodd" d="M5.04907 36.023V13.1708C5.04908 7.46642 9.62658 2.84314 15.2745 2.84314H33.4024C39.3236 2.84314 44.1517 7.69649 44.1517 13.6769V15.6672V38.5193C44.1517 44.2238 39.5741 48.847 33.9263 48.847H15.7983C9.87712 48.847 5.04908 43.9937 5.04908 38.0133L5.04907 36.023Z" fill="url(#paint0_linear_55_26)"/>
<g opacity="0.5" filter="url(#filter0_f_55_26)">
<path d="M12.4412 14.8798L12.4412 33.0759C12.4412 34.6462 13.7141 35.9191 15.2843 35.9191H30.0686C31.6388 35.9191 32.9118 34.6462 32.9118 33.0759V14.8798C32.9118 13.3096 31.6388 12.0367 30.0686 12.0367H15.2843C13.7141 12.0367 12.4412 13.3096 12.4412 14.8798Z" fill="#35A7FF" fill-opacity="0.5"/>
</g>
<path d="M23.8688 13.2928H40.7794L52.7005 26.116V48.9682C52.7005 54.6726 48.123 59.2959 42.4751 59.2959H24.3471C18.4259 59.2959 13.5979 54.4425 13.5979 48.4622V23.6665C13.5979 17.9621 18.1982 13.2928 23.8688 13.2928Z" fill="#35A7FF" fill-opacity="0.35"/>
<path d="M40.9876 13.0992C40.9338 13.0414 40.8584 13.0085 40.7794 13.0085H23.8689C18.0381 13.0085 13.3136 17.8082 13.3136 23.6665V48.4622C13.3136 54.5977 18.267 59.5803 24.3471 59.5803H42.4751C48.2826 59.5803 52.9848 54.8269 52.9848 48.9682V26.116C52.9848 26.0442 52.9576 25.975 52.9087 25.9224L40.9876 13.0992Z" stroke="url(#paint1_linear_55_26)" stroke-linecap="round" stroke-linejoin="round"/>
<path fill-rule="evenodd" clip-rule="evenodd" d="M32.9767 31.339H25.2791C24.3454 31.339 23.571 32.121 23.571 33.0641C23.571 34.0072 24.3454 34.7662 25.2791 34.7662H32.9767C33.9103 34.7662 34.6847 34.0072 34.6847 33.0641C34.6847 32.121 33.9103 31.339 32.9767 31.339ZM25.2791 46.2663H37.6681C38.6018 46.2663 39.3761 45.4843 39.3761 44.5412C39.3761 43.5981 38.6018 42.8391 37.6681 42.8391H25.2791C24.3454 42.8391 23.5711 43.5981 23.5711 44.5412C23.5711 45.4843 24.3454 46.2663 25.2791 46.2663Z" fill="url(#paint2_linear_55_26)"/>
<mask id="mask0_55_26" style="mask-type:alpha" maskUnits="userSpaceOnUse" x="23" y="31" width="17" height="16">
<path fill-rule="evenodd" clip-rule="evenodd" d="M32.9767 31.339H25.2791C24.3454 31.339 23.571 32.121 23.571 33.0641C23.571 34.0072 24.3454 34.7662 25.2791 34.7662H32.9767C33.9103 34.7662 34.6847 34.0072 34.6847 33.0641C34.6847 32.121 33.9103 31.339 32.9767 31.339ZM25.2791 46.2663H37.6681C38.6018 46.2663 39.3761 45.4843 39.3761 44.5412C39.3761 43.5981 38.6018 42.8391 37.6681 42.8391H25.2791C24.3454 42.8391 23.5711 43.5981 23.5711 44.5412C23.5711 45.4843 24.3454 46.2663 25.2791 46.2663Z" fill="url(#paint3_linear_55_26)"/>
</mask>
<g mask="url(#mask0_55_26)">
<path d="M25.2791 31.5665H32.9767V31.1116H25.2791V31.5665ZM23.7985 33.0641C23.7985 32.2446 24.4732 31.5665 25.2791 31.5665V31.1116C24.2177 31.1116 23.3436 31.9976 23.3436 33.0641H23.7985ZM25.2791 34.5388C24.4692 34.5388 23.7985 33.8798 23.7985 33.0641H23.3436C23.3436 34.1346 24.2216 34.9937 25.2791 34.9937V34.5388ZM32.9767 34.5388H25.2791V34.9937H32.9767V34.5388ZM34.4573 33.0641C34.4573 33.8798 33.7866 34.5388 32.9767 34.5388V34.9937C34.0342 34.9937 34.9122 34.1346 34.9122 33.0641H34.4573ZM32.9767 31.5665C33.7827 31.5665 34.4573 32.2446 34.4573 33.0641H34.9122C34.9122 31.9976 34.0381 31.1116 32.9767 31.1116V31.5665ZM37.6682 46.0389H25.2792V46.4938H37.6682V46.0389ZM39.1487 44.5412C39.1487 45.3608 38.4741 46.0389 37.6682 46.0389V46.4938C38.7296 46.4938 39.6036 45.6078 39.6036 44.5412H39.1487ZM37.6682 43.0666C38.4781 43.0666 39.1487 43.7256 39.1487 44.5412H39.6036C39.6036 43.4707 38.7256 42.6117 37.6682 42.6117V43.0666ZM25.2792 43.0666H37.6682V42.6117H25.2792V43.0666ZM23.7986 44.5412C23.7986 43.7256 24.4692 43.0666 25.2792 43.0666V42.6117C24.2217 42.6117 23.3437 43.4707 23.3437 44.5412H23.7986ZM25.2792 46.0389C24.4732 46.0389 23.7986 45.3608 23.7986 44.5412H23.3437C23.3437 45.6078 24.2177 46.4938 25.2792 46.4938V46.0389Z" fill="url(#paint4_linear_55_26)"/>
</g>
<g filter="url(#filter1_d_55_26)">
<path d="M42.8878 27.9526C44.4751 27.9687 46.6819 27.9756 48.5539 27.9687C49.5127 27.9664 50.0001 26.8094 49.3351 26.1125C46.9302 23.5869 42.6282 19.0671 40.1664 16.4817C39.4854 15.7664 38.2943 16.2586 38.2943 17.25V23.3132C38.2943 25.8571 40.369 27.9526 42.8878 27.9526Z" fill="url(#paint5_linear_55_26)"/>
<mask id="mask1_55_26" style="mask-type:alpha" maskUnits="userSpaceOnUse" x="38" y="16" width="12" height="12">
<path d="M42.8878 27.9526C44.4751 27.9687 46.6819 27.9756 48.5539 27.9687C49.5127 27.9664 50.0001 26.8094 49.3351 26.1125C46.9302 23.5869 42.6282 19.0671 40.1664 16.4817C39.4854 15.7664 38.2943 16.2586 38.2943 17.25V23.3132C38.2943 25.8571 40.369 27.9526 42.8878 27.9526Z" fill="url(#paint6_linear_55_26)"/>
</mask>
<g mask="url(#mask1_55_26)">
<path d="M48.554 27.9687L48.5534 27.7412H48.5531L48.554 27.9687ZM49.3351 26.1125L49.1704 26.2693L49.1705 26.2695L49.3351 26.1125ZM40.1664 16.4817L40.0016 16.6386L40.0016 16.6386L40.1664 16.4817ZM42.8855 28.1801C44.474 28.1961 46.6818 28.2031 48.5548 28.1961L48.5531 27.7412C46.6821 27.7482 44.4763 27.7412 42.8902 27.7251L42.8855 28.1801ZM48.5545 28.1961C49.7168 28.1934 50.3001 26.7943 49.4997 25.9555L49.1705 26.2695C49.7001 26.8246 49.3087 27.7394 48.5534 27.7412L48.5545 28.1961ZM49.4998 25.9556C47.0933 23.4284 42.7946 18.912 40.3311 16.3249L40.0016 16.6386C42.4618 19.2222 46.7671 23.7455 49.1704 26.2693L49.4998 25.9556ZM40.3311 16.3249C39.503 15.4549 38.0669 16.0615 38.0669 17.25H38.5218C38.5218 16.4558 39.4679 16.0778 40.0016 16.6386L40.3311 16.3249ZM38.0669 17.25V23.3132H38.5218V17.25H38.0669ZM38.0669 23.3132C38.0669 25.9807 40.2413 28.1801 42.8878 28.1801V27.7251C40.4968 27.7251 38.5218 25.7337 38.5218 23.3132H38.0669Z" fill="url(#paint7_linear_55_26)"/>
</g>
</g>
</g>
<defs>
<filter id="filter0_f_55_26" x="-8.55884" y="-8.96326" width="62.4706" height="65.8823" filterUnits="userSpaceOnUse" color-interpolation-filters="sRGB">
<feFlood flood-opacity="0" result="BackgroundImageFix"/>
<feBlend mode="normal" in="SourceGraphic" in2="BackgroundImageFix" result="shape"/>
<feGaussianBlur stdDeviation="10.5" result="effect1_foregroundBlur_55_26"/>
</filter>
<filter id="filter1_d_55_26" x="33.2943" y="11.1426" width="31.3475" height="31.8287" filterUnits="userSpaceOnUse" color-interpolation-filters="sRGB">
<feFlood flood-opacity="0" result="BackgroundImageFix"/>
<feColorMatrix in="SourceAlpha" type="matrix" values="0 0 0 0 0 0 0 0 0 0 0 0 0 0 0 0 0 0 127 0" result="hardAlpha"/>
<feOffset dx="5" dy="5"/>
<feGaussianBlur stdDeviation="5"/>
<feColorMatrix type="matrix" values="0 0 0 0 0.577356 0 0 0 0 0.359375 0 0 0 0 0.9375 0 0 0 0.25 0"/>
<feBlend mode="normal" in2="BackgroundImageFix" result="effect1_dropShadow_55_26"/>
<feBlend mode="normal" in="SourceGraphic" in2="effect1_dropShadow_55_26" result="shape"/>
</filter>
<linearGradient id="paint0_linear_55_26" x1="33.1152" y1="2.84314" x2="33.1152" y2="48.847" gradientUnits="userSpaceOnUse">
<stop stop-color="#35A7FF"/>
<stop offset="1" stop-color="#234865"/>
</linearGradient>
<linearGradient id="paint1_linear_55_26" x1="19.8224" y1="18.6522" x2="49.8019" y2="50.213" gradientUnits="userSpaceOnUse">
<stop stop-color="white" stop-opacity="0.25"/>
<stop offset="1" stop-color="white" stop-opacity="0"/>
</linearGradient>
<linearGradient id="paint2_linear_55_26" x1="38.2556" y1="34.0346" x2="20.6525" y2="34.6423" gradientUnits="userSpaceOnUse">
<stop stop-color="white"/>
<stop offset="1" stop-color="white" stop-opacity="0.2"/>
</linearGradient>
<linearGradient id="paint3_linear_55_26" x1="26.087" y1="33.078" x2="35.4806" y2="45.3963" gradientUnits="userSpaceOnUse">
<stop stop-color="white" stop-opacity="0.25"/>
<stop offset="1" stop-color="white" stop-opacity="0"/>
</linearGradient>
<linearGradient id="paint4_linear_55_26" x1="26.087" y1="33.0781" x2="35.4806" y2="45.3963" gradientUnits="userSpaceOnUse">
<stop stop-color="white" stop-opacity="0.25"/>
<stop offset="1" stop-color="white" stop-opacity="0"/>
</linearGradient>
<linearGradient id="paint5_linear_55_26" x1="48.8372" y1="18.2786" x2="36.1962" y2="18.674" gradientUnits="userSpaceOnUse">
<stop stop-color="white"/>
<stop offset="1" stop-color="white" stop-opacity="0.2"/>
</linearGradient>
<linearGradient id="paint6_linear_55_26" x1="40.1007" y1="17.5207" x2="47.7062" y2="26.557" gradientUnits="userSpaceOnUse">
<stop stop-color="white" stop-opacity="0.25"/>
<stop offset="1" stop-color="white" stop-opacity="0"/>
</linearGradient>
<linearGradient id="paint7_linear_55_26" x1="40.1007" y1="17.5207" x2="47.7062" y2="26.557" gradientUnits="userSpaceOnUse">
<stop stop-color="white" stop-opacity="0.25"/>
<stop offset="1" stop-color="white" stop-opacity="0"/>
</linearGradient>
<clipPath id="clip0_55_26">
<rect width="58" height="60.2745" fill="white" transform="translate(0.5)"/>
</clipPath>
</defs>
</svg>
