<svg width="61" height="60" viewBox="0 0 61 60" fill="none" xmlns="http://www.w3.org/2000/svg">
<g clip-path="url(#clip0_56_95)">
<path d="M49.8856 23.617L48.2364 21.9684C47.5951 21.3272 47.2286 20.4571 47.2286 19.5435V17.1828C47.2286 13.3819 44.1363 10.293 40.334 10.293H37.9747C37.0585 10.293 36.1881 9.9244 35.5467 9.2833L33.8746 7.61406C31.1718 4.93511 26.7968 4.93511 24.1169 7.6347L22.4677 9.2833C21.8264 9.9244 20.956 10.293 20.0397 10.293H17.6805C13.8781 10.293 10.7859 13.3819 10.7859 17.1828V19.5183C10.7859 20.4571 10.4194 21.3272 9.77808 21.9684L8.10598 23.6421C5.42602 26.3417 5.44892 30.7174 8.12886 33.394L9.77808 35.0198C10.4194 35.6837 10.7859 36.5539 10.7859 37.472V39.8282C10.7859 43.6291 13.8781 46.7225 17.6805 46.7225H20.0397C20.956 46.7225 21.8264 47.0866 22.4677 47.7277L24.1398 49.4015C25.4912 50.7295 27.255 51.3912 29.0187 51.3912C30.7824 51.3912 32.5461 50.7295 33.8976 49.3763L35.5467 47.7277C36.1881 47.0866 37.0585 46.7225 37.9747 46.7225H40.334C44.1363 46.7225 47.2286 43.6291 47.2286 39.8282V37.472C47.2286 36.5539 47.5951 35.6837 48.2364 35.0426L49.8627 33.4169C49.8856 33.394 49.9085 33.3734 49.9314 33.3482C51.2141 32.0454 51.9242 30.3029 51.9013 28.4711C51.9013 26.6394 51.1912 24.8992 49.8856 23.617Z" fill="url(#paint0_linear_56_95)"/>
<g opacity="0.5" filter="url(#filter0_f_56_95)">
<path d="M42.8294 25.2667L41.7375 24.1752C41.3129 23.7508 41.0703 23.1747 41.0703 22.5698V21.0068C41.0703 18.4903 39.0229 16.4452 36.5054 16.4452H34.9434C34.3368 16.4452 33.7605 16.2011 33.3359 15.7766L32.2288 14.6715C30.4393 12.8978 27.5427 12.8978 25.7683 14.6851L24.6764 15.7766C24.2518 16.2011 23.6755 16.4452 23.0689 16.4452H21.5068C18.9894 16.4452 16.942 18.4903 16.942 21.0068V22.5531C16.942 23.1747 16.6994 23.7508 16.2748 24.1752L15.1677 25.2834C13.3933 27.0708 13.4085 29.9679 15.1828 31.7401L16.2748 32.8164C16.6994 33.256 16.942 33.8321 16.942 34.4401V36C16.942 38.5165 18.9894 40.5647 21.5068 40.5647H23.0689C23.6755 40.5647 24.2518 40.8057 24.6764 41.2302L25.7835 42.3384C26.6782 43.2176 27.846 43.6558 29.0137 43.6558C30.1814 43.6558 31.3492 43.2176 32.244 42.3217L33.3359 41.2302C33.7605 40.8057 34.3368 40.5647 34.9434 40.5647H36.5054C39.0229 40.5647 41.0703 38.5165 41.0703 36V34.4401C41.0703 33.8321 41.3129 33.256 41.7375 32.8316L42.8143 31.7552C42.8294 31.7401 42.8446 31.7264 42.8598 31.7097C43.709 30.8471 44.1792 29.6934 44.164 28.4807C44.164 27.2679 43.6939 26.1157 42.8294 25.2667Z" fill="#35A7FF"/>
</g>
<path d="M57.8292 31.5627L56.18 29.9141C55.5387 29.273 55.1722 28.4029 55.1722 27.4893V25.1286C55.1722 21.3277 52.0799 18.2389 48.2776 18.2389H45.9184C45.0021 18.2389 44.1317 17.8702 43.4903 17.2291L41.8182 15.5599C39.1154 12.8809 34.7405 12.8809 32.0605 15.5805L30.4113 17.2291C29.77 17.8702 28.8996 18.2389 27.9834 18.2389H25.6241C21.8218 18.2389 18.7295 21.3277 18.7295 25.1286V27.4641C18.7295 28.4029 18.363 29.273 17.7217 29.9141L16.0496 31.5879C13.3696 34.2875 13.3925 38.6631 16.0725 41.3398L17.7217 42.9655C18.363 43.6295 18.7295 44.4996 18.7295 45.4178V47.7739C18.7295 51.5749 21.8218 54.6683 25.6241 54.6683H27.9834C28.8996 54.6683 29.77 55.0323 30.4113 55.6735L32.0834 57.3471C33.4348 58.6755 35.1986 59.3372 36.9623 59.3372C38.726 59.3372 40.4897 58.6755 41.8412 57.3218L43.4903 55.6735C44.1317 55.0323 45.0021 54.6683 45.9184 54.6683H48.2776C52.0799 54.6683 55.1722 51.5749 55.1722 47.7739V45.4178C55.1722 44.4996 55.5387 43.6295 56.18 42.9884L57.8062 41.3627C57.8292 41.3398 57.8521 41.3192 57.8751 41.294C59.1576 39.9912 59.868 38.2487 59.845 36.4169C59.845 34.5852 59.1346 32.8449 57.8292 31.5627Z" fill="#35A7FF" fill-opacity="0.35"/>
<mask id="mask0_56_95" style="mask-type:alpha" maskUnits="userSpaceOnUse" x="13" y="12" width="48" height="49">
<path d="M60.593 12.9924H13.4902V60.0952H60.593V12.9924Z" fill="white"/>
<path d="M57.8292 31.5627L56.18 29.9141C55.5387 29.273 55.1722 28.4029 55.1722 27.4893V25.1286C55.1722 21.3277 52.0799 18.2389 48.2776 18.2389H45.9184C45.0021 18.2389 44.1317 17.8702 43.4903 17.2291L41.8182 15.5599C39.1154 12.8809 34.7405 12.8809 32.0605 15.5805L30.4113 17.2291C29.77 17.8702 28.8996 18.2389 27.9834 18.2389H25.6241C21.8218 18.2389 18.7295 21.3277 18.7295 25.1286V27.4641C18.7295 28.4029 18.363 29.273 17.7217 29.9141L16.0496 31.5879C13.3696 34.2875 13.3925 38.6631 16.0725 41.3398L17.7217 42.9655C18.363 43.6295 18.7295 44.4996 18.7295 45.4178V47.7739C18.7295 51.5749 21.8218 54.6683 25.6241 54.6683H27.9834C28.8996 54.6683 29.77 55.0323 30.4113 55.6735L32.0834 57.3471C33.4348 58.6755 35.1986 59.3372 36.9623 59.3372C38.726 59.3372 40.4897 58.6755 41.8412 57.3218L43.4903 55.6735C44.1317 55.0323 45.0021 54.6683 45.9184 54.6683H48.2776C52.0799 54.6683 55.1722 51.5749 55.1722 47.7739V45.4178C55.1722 44.4996 55.5387 43.6295 56.18 42.9884L57.8062 41.3627C57.8292 41.3398 57.8521 41.3192 57.8751 41.294C59.1576 39.9912 59.868 38.2487 59.845 36.4169C59.845 34.5852 59.1346 32.8449 57.8292 31.5627Z" fill="url(#paint1_linear_56_95)"/>
</mask>
<g mask="url(#mask0_56_95)">
<path d="M56.1799 29.9141L56.5764 29.5175L56.1799 29.9141ZM43.4903 17.229L43.8867 16.8325L43.8864 16.8322L43.4903 17.229ZM41.8182 15.5599L42.2144 15.163L42.213 15.1616L41.8182 15.5599ZM32.0605 15.5804L32.4569 15.977L32.4584 15.9755L32.0605 15.5804ZM30.4113 17.229L30.8077 17.6256L30.4113 17.229ZM17.7216 29.9141L17.3252 29.5175L17.3249 29.5178L17.7216 29.9141ZM16.0495 31.5879L15.6528 31.1915L15.6516 31.1928L16.0495 31.5879ZM16.0724 41.3398L15.6761 41.7366L15.6788 41.7391L16.0724 41.3398ZM17.7216 42.9655L18.125 42.5759C18.1218 42.5726 18.1185 42.5694 18.1153 42.5661L17.7216 42.9655ZM30.4113 55.6734L30.808 55.2771L30.8077 55.2768L30.4113 55.6734ZM32.0834 57.347L31.6867 57.7435L31.6904 57.7474L32.0834 57.347ZM41.8411 57.3218L41.4447 56.9254L41.4443 56.9259L41.8411 57.3218ZM43.4903 55.6734L43.8867 56.07L43.4903 55.6734ZM56.1799 42.9884L56.5764 43.3849L56.1799 42.9884ZM57.8061 41.3627L57.4097 40.9661L57.8061 41.3627ZM57.8751 41.294L57.4753 40.9006C57.4702 40.9059 57.4652 40.9113 57.4601 40.9167L57.8751 41.294ZM59.845 36.4169H59.2842V36.4239L59.845 36.4169ZM58.2256 31.1661L56.5764 29.5175L55.7835 30.3107L57.4327 31.9593L58.2256 31.1661ZM56.5764 29.5175C56.0389 28.9802 55.7329 28.2522 55.7329 27.4893H54.6114C54.6114 28.5536 55.0383 29.5658 55.7835 30.3107L56.5764 29.5175ZM55.7329 27.4893V25.1286H54.6114V27.4893H55.7329ZM55.7329 25.1286C55.7329 21.0175 52.3891 17.6781 48.2776 17.6781V18.7996C51.7706 18.7996 54.6114 21.6377 54.6114 25.1286H55.7329ZM48.2776 17.6781H45.9183V18.7996H48.2776V17.6781ZM45.9183 17.6781C45.1533 17.6781 44.4248 17.3703 43.8867 16.8325L43.0939 17.6256C43.8385 18.37 44.8508 18.7996 45.9183 18.7996V17.6781ZM43.8864 16.8322L42.2144 15.163L41.422 15.9567L43.0942 17.6259L43.8864 16.8322ZM42.213 15.1616C39.2922 12.2666 34.5625 12.2642 31.6625 15.1854L32.4584 15.9755C34.9184 13.4975 38.9385 13.4951 41.4235 15.9581L42.213 15.1616ZM31.664 15.1839L30.0148 16.8325L30.8077 17.6256L32.4569 15.977L31.664 15.1839ZM30.0148 16.8325C29.4767 17.3703 28.7482 17.6781 27.9833 17.6781V18.7996C29.0508 18.7996 30.0631 18.37 30.8077 17.6256L30.0148 16.8325ZM27.9833 17.6781H25.624V18.7996H27.9833V17.6781ZM25.624 17.6781C21.5125 17.6781 18.1687 21.0175 18.1687 25.1286H19.2902C19.2902 21.6377 22.131 18.7996 25.624 18.7996V17.6781ZM18.1687 25.1286V27.4641H19.2902V25.1286H18.1687ZM18.1687 27.4641C18.1687 28.2544 17.8611 28.9817 17.3252 29.5175L18.1181 30.3107C18.8648 29.5642 19.2902 28.5514 19.2902 27.4641H18.1687ZM17.3249 29.5178L15.6528 31.1915L16.4462 31.9841L18.1184 30.3104L17.3249 29.5178ZM15.6516 31.1928C12.7531 34.1125 12.7784 38.8423 15.6762 41.7365L16.4687 40.943C14.0066 38.4839 13.9861 34.4624 16.4475 31.9829L15.6516 31.1928ZM15.6788 41.7391L17.328 43.3648L18.1153 42.5661L16.4661 40.9405L15.6788 41.7391ZM17.3183 43.355C17.8633 43.9193 18.1687 44.6515 18.1687 45.4178H19.2902C19.2902 44.3477 18.8626 43.3397 18.125 42.5759L17.3183 43.355ZM18.1687 45.4178V47.7739H19.2902V45.4178H18.1687ZM18.1687 47.7739C18.1687 51.8845 21.5119 55.229 25.624 55.229V54.1075C22.1315 54.1075 19.2902 51.2652 19.2902 47.7739H18.1687ZM25.624 55.229H27.9833V54.1075H25.624V55.229ZM27.9833 55.229C28.7501 55.229 29.4782 55.5335 30.0148 56.07L30.8077 55.2768C30.0617 54.5311 29.0489 54.1075 27.9833 54.1075V55.229ZM30.0146 56.0697L31.6867 57.7435L32.4801 56.9512L30.808 55.2771L30.0146 56.0697ZM31.6904 57.7474C33.1515 59.1829 35.0585 59.8979 36.9622 59.8979V58.7764C35.3386 58.7764 33.7181 58.1674 32.4764 56.9472L31.6904 57.7474ZM36.9622 59.8979C38.8666 59.8979 40.7756 59.1824 42.2379 57.7183L41.4443 56.9259C40.2037 58.168 38.5853 58.7764 36.9622 58.7764V59.8979ZM42.2376 57.7188L43.8867 56.07L43.0939 55.2768L41.4447 56.9254L42.2376 57.7188ZM43.8867 56.07C44.4234 55.5335 45.1514 55.229 45.9183 55.229V54.1075C44.8527 54.1075 43.8399 54.5311 43.0939 55.2768L43.8867 56.07ZM45.9183 55.229H48.2776V54.1075H45.9183V55.229ZM48.2776 55.229C52.3896 55.229 55.7329 51.8845 55.7329 47.7739H54.6114C54.6114 51.2652 51.7701 54.1075 48.2776 54.1075V55.229ZM55.7329 47.7739V45.4178H54.6114V47.7739H55.7329ZM55.7329 45.4178C55.7329 44.6499 56.0391 43.922 56.5764 43.3849L55.7835 42.5918C55.038 43.337 54.6114 44.3493 54.6114 45.4178H55.7329ZM56.5764 43.3849L58.2026 41.7593L57.4097 40.9661L55.7835 42.5918L56.5764 43.3849ZM58.2026 41.7593C58.211 41.7507 58.2132 41.749 58.2317 41.7308C58.2463 41.7166 58.267 41.6961 58.29 41.6713L57.4601 40.9167C57.4596 40.917 57.4573 40.9194 57.4495 40.9276C57.4444 40.9324 57.4411 40.9356 57.4332 40.943C57.427 40.9492 57.4186 40.9572 57.4097 40.9661L58.2026 41.7593ZM58.2743 41.6874C59.6611 40.2791 60.4304 38.393 60.4057 36.4099L59.2842 36.4239C59.305 38.1043 58.6545 39.7031 57.4753 40.9006L58.2743 41.6874ZM60.4057 36.4169C60.4057 34.4389 59.6381 32.5533 58.2222 31.1626L57.436 31.9627C58.6315 33.1366 59.2842 34.7313 59.2842 36.4169H60.4057Z" fill="url(#paint2_linear_56_95)"/>
</g>
<g filter="url(#filter1_d_56_95)">
<path fill-rule="evenodd" clip-rule="evenodd" d="M32.4728 43.7438C32.1063 44.133 31.6024 44.3391 31.0527 44.3391C30.5258 44.3391 30.0219 44.133 29.6554 43.7438C28.8766 42.9653 28.8766 41.683 29.6554 40.9045L41.4288 29.1354C42.2077 28.3592 43.4674 28.3592 44.2462 29.1354C45.025 29.9138 45.025 31.1984 44.2462 31.9769L32.4728 43.7438ZM42.8489 44.3392C41.7266 44.3392 40.8333 43.4462 40.8333 42.3242C40.8333 41.2274 41.7266 40.3321 42.8489 40.3321C43.9485 40.3321 44.8417 41.2274 44.8417 42.3242C44.8417 43.4462 43.9485 44.3392 42.8489 44.3392ZM33.0683 30.5551C33.0683 29.4561 32.175 28.5631 31.0755 28.5631C29.9761 28.5631 29.0598 29.4561 29.0598 30.5551C29.0598 31.6794 29.9761 32.5701 31.0755 32.5701C32.175 32.5701 33.0683 31.6794 33.0683 30.5551Z" fill="url(#paint3_linear_56_95)"/>
<mask id="mask1_56_95" style="mask-type:alpha" maskUnits="userSpaceOnUse" x="29" y="28" width="16" height="17">
<path fill-rule="evenodd" clip-rule="evenodd" d="M32.4728 43.7438C32.1063 44.133 31.6024 44.3391 31.0527 44.3391C30.5258 44.3391 30.0219 44.133 29.6554 43.7438C28.8766 42.9653 28.8766 41.683 29.6554 40.9045L41.4288 29.1354C42.2077 28.3592 43.4674 28.3592 44.2462 29.1354C45.025 29.9138 45.025 31.1984 44.2462 31.9769L32.4728 43.7438ZM42.8489 44.3392C41.7266 44.3392 40.8333 43.4462 40.8333 42.3242C40.8333 41.2274 41.7266 40.3321 42.8489 40.3321C43.9485 40.3321 44.8417 41.2274 44.8417 42.3242C44.8417 43.4462 43.9485 44.3392 42.8489 44.3392ZM33.0683 30.5551C33.0683 29.4561 32.175 28.5631 31.0755 28.5631C29.9761 28.5631 29.0598 29.4561 29.0598 30.5551C29.0598 31.6794 29.9761 32.5701 31.0755 32.5701C32.175 32.5701 33.0683 31.6794 33.0683 30.5551Z" fill="url(#paint4_linear_56_95)"/>
</mask>
<g mask="url(#mask1_56_95)">
<path d="M32.4727 43.7439L32.3141 43.5851L32.3094 43.5901L32.4727 43.7439ZM29.6554 43.7439L29.8187 43.59L29.814 43.5852L29.6554 43.7439ZM29.6554 40.9046L29.4968 40.7459L29.6554 40.9046ZM41.4288 29.1354L41.2704 28.9766L41.2702 28.9768L41.4288 29.1354ZM44.2461 29.1354L44.4047 28.9768L44.4045 28.9766L44.2461 29.1354ZM44.2461 31.977L44.4047 32.1356L44.2461 31.977ZM31.0526 44.5634C31.6598 44.5634 32.2243 44.3349 32.636 43.8976L32.3094 43.5901C31.9882 43.9313 31.5448 44.1148 31.0526 44.1148V44.5634ZM29.492 43.8976C29.9029 44.3339 30.4668 44.5634 31.0526 44.5634V44.1148C30.5847 44.1148 30.1408 43.9323 29.8187 43.5901L29.492 43.8976ZM29.4968 40.7459C28.6304 41.6121 28.6304 43.0364 29.4968 43.9025L29.814 43.5852C29.1228 42.8943 29.1228 41.7541 29.814 41.0632L29.4968 40.7459ZM41.2702 28.9768L29.4968 40.7459L29.814 41.0632L41.5874 29.2941L41.2702 28.9768ZM44.4045 28.9766C43.5382 28.1131 42.1368 28.1131 41.2704 28.9766L41.5871 29.2943C42.2784 28.6053 43.3966 28.6053 44.0878 29.2943L44.4045 28.9766ZM44.4047 32.1356C45.2711 31.2695 45.2711 29.8429 44.4047 28.9768L44.0876 29.2941C44.7787 29.985 44.7787 31.1274 44.0876 31.8183L44.4047 32.1356ZM32.6313 43.9025L44.4047 32.1356L44.0876 31.8183L32.3142 43.5852L32.6313 43.9025ZM40.6089 42.3243C40.6089 43.5702 41.6027 44.5636 42.8489 44.5636V44.115C41.8503 44.115 41.0575 43.3223 41.0575 42.3243H40.6089ZM42.8489 40.1079C41.6042 40.1079 40.6089 41.1021 40.6089 42.3243H41.0575C41.0575 41.3529 41.8488 40.5565 42.8489 40.5565V40.1079ZM45.066 42.3243C45.066 41.1037 44.0723 40.1079 42.8489 40.1079V40.5565C43.8244 40.5565 44.6174 41.3513 44.6174 42.3243H45.066ZM42.8489 44.5636C44.0738 44.5636 45.066 43.5685 45.066 42.3243H44.6174C44.6174 43.324 43.8229 44.115 42.8489 44.115V44.5636ZM31.0755 28.7874C32.0511 28.7874 32.844 29.5801 32.844 30.5552H33.2926C33.2926 29.3321 32.2987 28.3388 31.0755 28.3388V28.7874ZM29.284 30.5552C29.284 29.5834 30.0965 28.7874 31.0755 28.7874V28.3388C29.8556 28.3388 28.8354 29.3288 28.8354 30.5552H29.284ZM31.0755 32.3458C30.098 32.3458 29.284 31.5536 29.284 30.5552H28.8354C28.8354 31.8052 29.854 32.7944 31.0755 32.7944V32.3458ZM32.844 30.5552C32.844 31.557 32.0496 32.3458 31.0755 32.3458V32.7944C32.3002 32.7944 33.2926 31.8019 33.2926 30.5552H32.844Z" fill="url(#paint5_linear_56_95)"/>
</g>
</g>
</g>
<defs>
<filter id="filter0_f_56_95" x="-9.15552" y="-9.6571" width="76.3198" height="76.3129" filterUnits="userSpaceOnUse" color-interpolation-filters="sRGB">
<feFlood flood-opacity="0" result="BackgroundImageFix"/>
<feBlend mode="normal" in="SourceGraphic" in2="BackgroundImageFix" result="shape"/>
<feGaussianBlur stdDeviation="11.5" result="effect1_foregroundBlur_56_95"/>
</filter>
<filter id="filter1_d_56_95" x="24.0598" y="23.5532" width="35.782" height="35.786" filterUnits="userSpaceOnUse" color-interpolation-filters="sRGB">
<feFlood flood-opacity="0" result="BackgroundImageFix"/>
<feColorMatrix in="SourceAlpha" type="matrix" values="0 0 0 0 0 0 0 0 0 0 0 0 0 0 0 0 0 0 127 0" result="hardAlpha"/>
<feOffset dx="5" dy="5"/>
<feGaussianBlur stdDeviation="5"/>
<feColorMatrix type="matrix" values="0 0 0 0 1 0 0 0 0 0.580392 0 0 0 0 0.247059 0 0 0 0.5 0"/>
<feBlend mode="normal" in2="BackgroundImageFix" result="effect1_dropShadow_56_95"/>
<feBlend mode="normal" in="SourceGraphic" in2="effect1_dropShadow_56_95" result="shape"/>
</filter>
<linearGradient id="paint0_linear_56_95" x1="38.9767" y1="5.60742" x2="38.9767" y2="51.3912" gradientUnits="userSpaceOnUse">
<stop stop-color="#35A7FF"/>
<stop offset="1" stop-color="#234865"/>
</linearGradient>
<linearGradient id="paint1_linear_56_95" x1="13.9175" y1="13.2419" x2="50.5124" y2="55.0901" gradientUnits="userSpaceOnUse">
<stop stop-color="white" stop-opacity="0.4"/>
<stop offset="1" stop-color="white" stop-opacity="0"/>
</linearGradient>
<linearGradient id="paint2_linear_56_95" x1="13.9174" y1="13.2418" x2="50.5124" y2="55.09" gradientUnits="userSpaceOnUse">
<stop stop-color="white" stop-opacity="0.4"/>
<stop offset="1" stop-color="white" stop-opacity="0"/>
</linearGradient>
<linearGradient id="paint3_linear_56_95" x1="43.7228" y1="31.4038" x2="26.1433" y2="31.9768" gradientUnits="userSpaceOnUse">
<stop stop-color="white"/>
<stop offset="1" stop-color="white" stop-opacity="0.2"/>
</linearGradient>
<linearGradient id="paint4_linear_56_95" x1="31.5721" y1="30.3923" x2="41.6424" y2="42.8614" gradientUnits="userSpaceOnUse">
<stop stop-color="white" stop-opacity="0.25"/>
<stop offset="1" stop-color="white" stop-opacity="0"/>
</linearGradient>
<linearGradient id="paint5_linear_56_95" x1="31.572" y1="30.3923" x2="41.6423" y2="42.8615" gradientUnits="userSpaceOnUse">
<stop stop-color="white" stop-opacity="0.25"/>
<stop offset="1" stop-color="white" stop-opacity="0"/>
</linearGradient>
<clipPath id="clip0_56_95">
<rect width="60" height="60" fill="white" transform="translate(0.5)"/>
</clipPath>
</defs>
</svg>
