<svg width="70" height="65" viewBox="0 0 70 65" fill="none" xmlns="http://www.w3.org/2000/svg">
<g clip-path="url(#clip0_56_114)" filter="url(#filter0_d_56_114)">
<path d="M45.21 16.25C56.83 16.25 65.2501 25.73 65.2501 36.25C65.2501 39.61 64.2701 43.07 62.5501 46.2301C62.2301 46.7501 62.1901 47.4101 62.4101 48.0301L63.7501 52.5101C64.0501 53.5901 63.1301 54.3901 62.1101 54.0701L58.07 52.8701C56.97 52.5101 56.11 52.9701 55.088 53.5901C52.168 55.3101 48.53 56.1901 45.25 56.1901C35.33 56.1901 25.25 48.5301 25.25 36.19C25.25 25.55 33.85 16.25 45.21 16.25Z" fill="url(#paint0_linear_56_114)"/>
<g opacity="0.5" filter="url(#filter1_f_56_114)">
<path d="M57.981 36.4494C57.981 43.5846 52.1983 49.3661 45.0644 49.3661C37.9305 49.3661 32.1477 43.5846 32.1477 36.4494C32.1477 29.3168 37.9305 23.5327 45.0644 23.5327C52.1983 23.5327 57.981 29.3168 57.981 36.4494Z" fill="#35A7FF"/>
</g>
<path d="M30.1969 0.625C15.3693 0.625 4.625 12.7219 4.625 26.1458C4.625 30.4333 5.87552 34.8484 8.07031 38.8808C8.47864 39.5443 8.52969 40.3864 8.24896 41.1776L6.53906 46.8942C6.15625 48.2724 7.33021 49.2932 8.63177 48.8849L13.787 47.3536C15.1906 46.8942 16.288 47.4813 17.5921 48.2724C21.3182 50.4672 25.9604 51.5901 30.1458 51.5901C42.8042 51.5901 55.6667 41.8156 55.6667 26.0693C55.6667 12.4922 44.6927 0.625 30.1969 0.625Z" fill="#35A7FF" fill-opacity="0.35"/>
<mask id="mask0_56_114" style="mask-type:alpha" maskUnits="userSpaceOnUse" x="4" y="0" width="53" height="53">
<path d="M56.5 0H4V52.5H56.5V0Z" fill="white"/>
<path d="M30.1969 0.625C15.3693 0.625 4.625 12.7219 4.625 26.1458C4.625 30.4333 5.87552 34.8484 8.07031 38.8808C8.47864 39.5443 8.52969 40.3864 8.24896 41.1776L6.53906 46.8942C6.15625 48.2724 7.33021 49.2932 8.63177 48.8849L13.787 47.3536C15.1906 46.8942 16.288 47.4813 17.5921 48.2724C21.3182 50.4672 25.9604 51.5901 30.1458 51.5901C42.8042 51.5901 55.6667 41.8156 55.6667 26.0693C55.6667 12.4922 44.6927 0.625 30.1969 0.625Z" fill="url(#paint1_linear_56_114)"/>
</mask>
<g mask="url(#mask0_56_114)">
<path d="M30.1969 1.25C30.5421 1.25 30.8219 0.970175 30.8219 0.625C30.8219 0.279822 30.5421 0 30.1969 0V1.25ZM8.07031 38.8808L7.52136 39.1795C7.52666 39.1893 7.53222 39.1989 7.53802 39.2083L8.07031 38.8808ZM8.24896 41.1776L7.65994 40.9686C7.65643 40.9785 7.65318 40.9884 7.65017 40.9985L8.24896 41.1776ZM6.53906 46.8942L5.94027 46.7152C5.9391 46.7191 5.93796 46.7231 5.93686 46.727L6.53906 46.8942ZM8.63177 48.8849L8.45381 48.2858C8.45076 48.2867 8.44772 48.2876 8.44468 48.2886L8.63177 48.8849ZM13.787 47.3536L13.9649 47.9528C13.9704 47.9511 13.9759 47.9494 13.9814 47.9476L13.787 47.3536ZM17.5921 48.2724L17.2679 48.8068L17.2749 48.8109L17.5921 48.2724ZM30.1969 0C29.8517 0 29.5719 0.279822 29.5719 0.625C29.5719 0.970175 29.8517 1.25 30.1969 1.25V0ZM30.1969 0C15.0036 0 4 12.3976 4 26.1458H5.25C5.25 13.0461 15.735 1.25 30.1969 1.25V0ZM4 26.1458C4 30.5527 5.28434 35.0696 7.52136 39.1795L8.61926 38.5819C6.4667 34.6273 5.25 30.314 5.25 26.1458H4ZM7.53802 39.2083C7.83214 39.6862 7.88774 40.3266 7.65994 40.9686L8.83798 41.3866C9.17163 40.4463 9.12516 39.4023 8.6026 38.5532L7.53802 39.2083ZM7.65017 40.9985L5.94027 46.7152L7.13785 47.0734L8.84774 41.3567L7.65017 40.9985ZM5.93686 46.727C5.68626 47.6292 5.93991 48.4749 6.53015 49.0191C7.11339 49.5567 7.96864 49.748 8.81886 49.4812L8.44468 48.2886C7.99334 48.4301 7.61083 48.3152 7.37741 48.1C7.15098 47.8913 7.00905 47.5375 7.14126 47.0616L5.93686 46.727ZM8.80973 49.484L13.9649 47.9528L13.609 46.7545L8.45381 48.2858L8.80973 49.484ZM13.9814 47.9476C15.0846 47.5866 15.948 48.006 17.2679 48.8067L17.9163 47.7381C16.628 46.9565 15.2967 46.2019 13.5926 46.7596L13.9814 47.9476ZM17.2749 48.8109C21.1069 51.0681 25.8608 52.2151 30.1458 52.2151V50.9651C26.0601 50.9651 21.5295 49.8663 17.9094 47.7339L17.2749 48.8109ZM30.1458 52.2151C43.0989 52.2151 56.2917 42.2091 56.2917 26.0693H55.0417C55.0417 41.4221 42.5094 50.9651 30.1458 50.9651V52.2151ZM56.2917 26.0693C56.2917 12.1609 45.0517 0 30.1969 0V1.25C44.3338 1.25 55.0417 12.8234 55.0417 26.0693H56.2917Z" fill="url(#paint2_linear_56_114)"/>
</g>
<g filter="url(#filter2_d_56_114)">
<path fill-rule="evenodd" clip-rule="evenodd" d="M30.0959 29.4377C28.2839 29.4122 26.8292 27.9575 26.8292 26.1455C26.8292 24.3591 28.3094 22.8789 30.0959 22.9044C31.9079 22.9044 33.3625 24.3591 33.3625 26.1711C33.3625 27.9575 31.9079 29.4377 30.0959 29.4377ZM18.3299 29.4378C16.5434 29.4378 15.0632 27.9576 15.0632 26.1711C15.0632 24.3591 16.5179 22.9044 18.3299 22.9044C20.1419 22.9044 21.5965 24.3591 21.5965 26.1711C21.5965 27.9576 20.1419 29.4123 18.3299 29.4378ZM38.594 26.1711C38.594 27.9575 40.0487 29.4377 41.8606 29.4377C43.6726 29.4377 45.1273 27.9575 45.1273 26.1711C45.1273 24.3591 43.6726 22.9044 41.8606 22.9044C40.0487 22.9044 38.594 24.3591 38.594 26.1711Z" fill="url(#paint3_linear_56_114)"/>
<mask id="mask1_56_114" style="mask-type:alpha" maskUnits="userSpaceOnUse" x="15" y="22" width="31" height="8">
<path fill-rule="evenodd" clip-rule="evenodd" d="M30.0959 29.4377C28.2839 29.4122 26.8292 27.9575 26.8292 26.1455C26.8292 24.3591 28.3094 22.8789 30.0959 22.9044C31.9079 22.9044 33.3625 24.3591 33.3625 26.1711C33.3625 27.9575 31.9079 29.4377 30.0959 29.4377ZM18.3299 29.4378C16.5434 29.4378 15.0632 27.9576 15.0632 26.1711C15.0632 24.3591 16.5179 22.9044 18.3299 22.9044C20.1419 22.9044 21.5965 24.3591 21.5965 26.1711C21.5965 27.9576 20.1419 29.4123 18.3299 29.4378ZM38.594 26.1711C38.594 27.9575 40.0487 29.4377 41.8606 29.4377C43.6726 29.4377 45.1273 27.9575 45.1273 26.1711C45.1273 24.3591 43.6726 22.9044 41.8606 22.9044C40.0487 22.9044 38.594 24.3591 38.594 26.1711Z" fill="url(#paint4_linear_56_114)"/>
</mask>
<g mask="url(#mask1_56_114)">
<path d="M30.0959 29.4377L30.0924 29.6877H30.0959V29.4377ZM30.0959 22.9044L30.0924 23.1544H30.0959V22.9044ZM18.3299 29.4378V29.6878L18.3334 29.6878L18.3299 29.4378ZM26.5792 26.1455C26.5792 28.0963 28.1458 29.6603 30.0924 29.6877L30.0994 29.1878C28.4221 29.1642 27.0792 27.8188 27.0792 26.1455H26.5792ZM30.0995 22.6544C28.1715 22.6269 26.5792 24.2217 26.5792 26.1455H27.0792C27.0792 24.4965 28.4474 23.1309 30.0924 23.1544L30.0995 22.6544ZM33.6125 26.1711C33.6125 24.221 32.046 22.6544 30.0959 22.6544V23.1544C31.7698 23.1544 33.1125 24.4972 33.1125 26.1711H33.6125ZM30.0959 29.6877C32.0472 29.6877 33.6125 28.0943 33.6125 26.1711H33.1125C33.1125 27.8207 31.7685 29.1877 30.0959 29.1877V29.6877ZM14.8132 26.1712C14.8132 28.0957 16.4054 29.6878 18.3299 29.6878V29.1878C16.6815 29.1878 15.3132 27.8195 15.3132 26.1712H14.8132ZM18.3299 22.6545C16.3799 22.6545 14.8132 24.2211 14.8132 26.1712H15.3132C15.3132 24.4972 16.656 23.1545 18.3299 23.1545V22.6545ZM21.8465 26.1712C21.8465 24.2211 20.2799 22.6545 18.3299 22.6545V23.1545C20.0038 23.1545 21.3465 24.4972 21.3465 26.1712H21.8465ZM18.3334 29.6878C20.2787 29.6603 21.8465 28.0976 21.8465 26.1712H21.3465C21.3465 27.8176 20.005 29.1642 18.3264 29.1878L18.3334 29.6878ZM41.8606 29.1877C40.188 29.1877 38.844 27.8207 38.844 26.1711H38.344C38.344 28.0943 39.9093 29.6877 41.8606 29.6877V29.1877ZM44.8773 26.1711C44.8773 27.8207 43.5333 29.1877 41.8606 29.1877V29.6877C43.8119 29.6877 45.3773 28.0943 45.3773 26.1711H44.8773ZM41.8606 23.1544C43.5345 23.1544 44.8773 24.4972 44.8773 26.1711H45.3773C45.3773 24.221 43.8107 22.6544 41.8606 22.6544V23.1544ZM38.844 26.1711C38.844 24.4972 40.1867 23.1544 41.8606 23.1544V22.6544C39.9106 22.6544 38.344 24.221 38.344 26.1711H38.844Z" fill="url(#paint5_linear_56_114)"/>
</g>
</g>
</g>
<defs>
<filter id="filter0_d_56_114" x="0" y="0" width="73" height="68" filterUnits="userSpaceOnUse" color-interpolation-filters="sRGB">
<feFlood flood-opacity="0" result="BackgroundImageFix"/>
<feColorMatrix in="SourceAlpha" type="matrix" values="0 0 0 0 0 0 0 0 0 0 0 0 0 0 0 0 0 0 127 0" result="hardAlpha"/>
<feOffset dy="4"/>
<feGaussianBlur stdDeviation="2"/>
<feComposite in2="hardAlpha" operator="out"/>
<feColorMatrix type="matrix" values="0 0 0 0 0 0 0 0 0 0 0 0 0 0 0 0 0 0 0.25 0"/>
<feBlend mode="normal" in2="BackgroundImageFix" result="effect1_dropShadow_56_114"/>
<feBlend mode="normal" in="SourceGraphic" in2="effect1_dropShadow_56_114" result="shape"/>
</filter>
<filter id="filter1_f_56_114" x="15.1477" y="6.53271" width="59.8333" height="59.8334" filterUnits="userSpaceOnUse" color-interpolation-filters="sRGB">
<feFlood flood-opacity="0" result="BackgroundImageFix"/>
<feBlend mode="normal" in="SourceGraphic" in2="BackgroundImageFix" result="shape"/>
<feGaussianBlur stdDeviation="8.5" result="effect1_foregroundBlur_56_114"/>
</filter>
<filter id="filter2_d_56_114" x="10.0632" y="17.9041" width="50.064" height="26.5337" filterUnits="userSpaceOnUse" color-interpolation-filters="sRGB">
<feFlood flood-opacity="0" result="BackgroundImageFix"/>
<feColorMatrix in="SourceAlpha" type="matrix" values="0 0 0 0 0 0 0 0 0 0 0 0 0 0 0 0 0 0 127 0" result="hardAlpha"/>
<feOffset dx="5" dy="5"/>
<feGaussianBlur stdDeviation="5"/>
<feColorMatrix type="matrix" values="0 0 0 0 0.577356 0 0 0 0 0.359375 0 0 0 0 0.9375 0 0 0 0.5 0"/>
<feBlend mode="normal" in2="BackgroundImageFix" result="effect1_dropShadow_56_114"/>
<feBlend mode="normal" in="SourceGraphic" in2="effect1_dropShadow_56_114" result="shape"/>
</filter>
<linearGradient id="paint0_linear_56_114" x1="53.9603" y1="16.25" x2="53.9603" y2="56.1901" gradientUnits="userSpaceOnUse">
<stop stop-color="#35A7FF"/>
<stop offset="1" stop-color="#234865"/>
</linearGradient>
<linearGradient id="paint1_linear_56_114" x1="12.75" y1="6.5625" x2="45.25" y2="46.875" gradientUnits="userSpaceOnUse">
<stop stop-color="white" stop-opacity="0.25"/>
<stop offset="1" stop-color="white" stop-opacity="0"/>
</linearGradient>
<linearGradient id="paint2_linear_56_114" x1="12.75" y1="6.5625" x2="45.25" y2="46.875" gradientUnits="userSpaceOnUse">
<stop stop-color="white" stop-opacity="0.25"/>
<stop offset="1" stop-color="white" stop-opacity="0"/>
</linearGradient>
<linearGradient id="paint3_linear_56_114" x1="42.9957" y1="24.0839" x2="10.2096" y2="29.0027" gradientUnits="userSpaceOnUse">
<stop stop-color="white"/>
<stop offset="1" stop-color="white" stop-opacity="0.2"/>
</linearGradient>
<linearGradient id="paint4_linear_56_114" x1="19.8489" y1="23.6653" x2="21.3005" y2="31.9376" gradientUnits="userSpaceOnUse">
<stop stop-color="white" stop-opacity="0.25"/>
<stop offset="1" stop-color="white" stop-opacity="0"/>
</linearGradient>
<linearGradient id="paint5_linear_56_114" x1="19.8489" y1="23.6653" x2="21.3005" y2="31.9376" gradientUnits="userSpaceOnUse">
<stop stop-color="white" stop-opacity="0.25"/>
<stop offset="1" stop-color="white" stop-opacity="0"/>
</linearGradient>
<clipPath id="clip0_56_114">
<rect width="65" height="60" fill="white" transform="translate(4)"/>
</clipPath>
</defs>
</svg>
