<svg width="38" height="30" viewBox="0 0 38 30" fill="none" xmlns="http://www.w3.org/2000/svg">
<path d="M18.9287 0.306122L37.296 11.3337V18.6634L18.9287 29.6939L0.561279 18.6634V11.3338L18.9287 0.306122Z" fill="#35A7FF"/>
<path fill-rule="evenodd" clip-rule="evenodd" d="M0.561279 11.3337L18.9286 0.306122L37.296 11.3337V18.6634L18.9286 29.6939L0.561279 18.6634V11.3337ZM18.9286 25.0146L33.3997 16.3241V13.674L33.3989 13.6735L18.9286 22.3614L4.45829 13.6735L4.45758 13.674V16.3241L18.9286 25.0146ZM18.9286 18.3095L30.0238 11.648L27.321 10.026L18.9286 15.0647L10.5363 10.026L7.83344 11.648L18.9286 18.3095ZM18.9286 11.0128L23.9458 8.0005L18.9286 4.98957L13.9114 8.0005L18.9286 11.0128Z" fill="#016FB9"/>
<path d="M18.9287 0.306122L0.561279 11.3338V18.6634L18.9286 29.6939L18.9287 0.306122Z" fill="#35A7FF" fill-opacity="0.32"/>
</svg>
