<svg width="186" height="36" viewBox="0 0 186 36" fill="none" xmlns="http://www.w3.org/2000/svg">
<path d="M18.3674 3.30615L36.7347 14.3338V21.6634L18.3674 32.6939L0 21.6634V14.3338L18.3674 3.30615Z" fill="#35A7FF"/>
<path fill-rule="evenodd" clip-rule="evenodd" d="M0 14.3338L18.3673 3.30615L36.7347 14.3338V21.6634L18.3673 32.6939L0 21.6634V14.3338ZM18.3673 28.0146L32.8384 19.3241V16.674L32.8377 16.6735L18.3673 25.3614L3.89701 16.6735L3.8963 16.674V19.3241L18.3673 28.0146ZM18.3673 21.3095L29.4625 14.6481L26.7597 13.026L18.3673 18.0648L9.97501 13.026L7.27216 14.6481L18.3673 21.3095ZM18.3673 14.0128L23.3846 11.0005L18.3673 7.9896L13.3501 11.0005L18.3673 14.0128Z" fill="#2F3061"/>
<path d="M18.3674 3.30615L0 14.3338V21.6634L18.3673 32.6939L18.3674 3.30615Z" fill="#35A7FF" fill-opacity="0.32"/>
<path d="M57.5353 28.3153C56.1247 28.3153 54.8507 28.0684 53.7134 27.5747C52.585 27.0721 51.6548 26.358 50.9231 25.4323C50.2001 24.4978 49.7417 23.3869 49.5477 22.0997L53.3035 21.5443C53.568 22.6375 54.1146 23.4795 54.9433 24.0702C55.7721 24.6609 56.7154 24.9562 57.7734 24.9562C58.3641 24.9562 58.9371 24.8637 59.4925 24.6785C60.048 24.4934 60.502 24.2201 60.8547 23.8586C61.2161 23.4971 61.3969 23.0519 61.3969 22.5229C61.3969 22.329 61.366 22.1438 61.3043 21.9675C61.2514 21.7824 61.1588 21.6104 61.0266 21.4517C60.8943 21.293 60.7048 21.1432 60.4579 21.0021C60.2199 20.861 59.9157 20.7332 59.5454 20.6186L54.5995 19.1639C54.2292 19.0581 53.7972 18.9082 53.3035 18.7143C52.8186 18.5203 52.3469 18.2426 51.8885 17.8811C51.43 17.5197 51.0465 17.0436 50.7379 16.4529C50.4382 15.8534 50.2883 15.0996 50.2883 14.1915C50.2883 12.9131 50.6101 11.8508 51.2537 11.0044C51.8973 10.158 52.7569 9.52766 53.8325 9.11329C54.9081 8.69892 56.0983 8.49615 57.4031 8.50496C58.7167 8.5226 59.8893 8.74741 60.9208 9.17941C61.9523 9.61141 62.8163 10.2418 63.5128 11.0705C64.2093 11.8904 64.7118 12.8955 65.0204 14.0857L61.1324 14.7469C60.9913 14.1298 60.7312 13.6096 60.3521 13.1864C59.973 12.7633 59.519 12.4415 58.99 12.221C58.4698 12.0006 57.9232 11.8816 57.3502 11.864C56.7859 11.8464 56.2525 11.9257 55.75 12.102C55.2563 12.2695 54.8507 12.5164 54.5334 12.8426C54.2248 13.1688 54.0705 13.5567 54.0705 14.0064C54.0705 14.4207 54.1983 14.7601 54.454 15.0246C54.7097 15.2803 55.0315 15.4875 55.4194 15.6462C55.8073 15.8049 56.2041 15.9371 56.6096 16.0429L59.9157 16.9422C60.4094 17.0744 60.9561 17.2508 61.5556 17.4712C62.1551 17.6828 62.7281 17.9825 63.2747 18.3704C63.8302 18.7495 64.2842 19.2521 64.6369 19.878C64.9983 20.504 65.1791 21.2975 65.1791 22.2584C65.1791 23.2811 64.9631 24.176 64.5311 24.943C64.1079 25.7012 63.5348 26.3316 62.8119 26.8341C62.089 27.3278 61.269 27.6981 60.3521 27.945C59.4441 28.1918 58.5051 28.3153 57.5353 28.3153ZM68.3502 11.6524V8.47852H71.9473V11.6524H68.3502ZM68.3502 27.9185V13.6361H71.9473V27.9185H68.3502ZM85.6454 27.9185V21.174C85.6454 20.8478 85.6278 20.4335 85.5925 19.9309C85.5573 19.4196 85.4471 18.9082 85.2619 18.3969C85.0768 17.8855 84.7726 17.4579 84.3494 17.1141C83.9351 16.7703 83.3444 16.5984 82.5774 16.5984C82.2688 16.5984 81.9382 16.6468 81.5855 16.7438C81.2329 16.8408 80.9023 17.0304 80.5937 17.3125C80.2851 17.5858 80.0294 17.9913 79.8267 18.5291C79.6327 19.0669 79.5357 19.781 79.5357 20.6715L77.4727 19.6929C77.4727 18.5644 77.7019 17.5064 78.1604 16.519C78.6188 15.5316 79.3065 14.7337 80.2234 14.1254C81.1491 13.517 82.3129 13.2129 83.7147 13.2129C84.8343 13.2129 85.7468 13.4024 86.4521 13.7815C87.1574 14.1606 87.7041 14.6411 88.092 15.223C88.4887 15.8049 88.7708 16.4132 88.9383 17.048C89.1059 17.6739 89.2072 18.247 89.2425 18.7672C89.2778 19.2873 89.2954 19.6664 89.2954 19.9045V27.9185H85.6454ZM75.8858 27.9185V13.6361H79.0861V18.3704H79.5357V27.9185H75.8858ZM96.6938 28.3153C95.6711 28.3153 94.8027 28.1213 94.0885 27.7334C93.3832 27.3366 92.8454 26.8121 92.4752 26.1597C92.1137 25.4984 91.9329 24.7711 91.9329 23.9776C91.9329 23.3164 92.0343 22.7125 92.2371 22.1659C92.4399 21.6193 92.7661 21.1388 93.2157 20.7244C93.6742 20.3012 94.2869 19.9486 95.0539 19.6664C95.5829 19.4725 96.2133 19.3006 96.945 19.1507C97.6768 19.0008 98.5055 18.8597 99.4312 18.7275C100.357 18.5864 101.375 18.4321 102.486 18.2646L101.19 18.9788C101.19 18.1324 100.987 17.5108 100.582 17.1141C100.176 16.7174 99.4974 16.519 98.5452 16.519C98.0162 16.519 97.4652 16.6468 96.8921 16.9025C96.3191 17.1582 95.9179 17.6122 95.6887 18.2646L92.4355 17.2331C92.797 16.0517 93.4758 15.0908 94.4721 14.3502C95.4683 13.6096 96.826 13.2393 98.5452 13.2393C99.8059 13.2393 100.926 13.4333 101.904 13.8212C102.883 14.2091 103.623 14.8792 104.126 15.8313C104.408 16.3603 104.576 16.8893 104.628 17.4183C104.681 17.9473 104.708 18.5379 104.708 19.1904V27.9185H101.56V24.9827L102.01 25.591C101.314 26.552 100.56 27.2485 99.7486 27.6805C98.9463 28.1037 97.9281 28.3153 96.6938 28.3153ZM97.4608 25.4852C98.122 25.4852 98.6774 25.3706 99.1271 25.1414C99.5855 24.9033 99.947 24.6344 100.211 24.3347C100.485 24.0349 100.67 23.7837 100.767 23.5809C100.952 23.193 101.058 22.7433 101.084 22.232C101.12 21.7118 101.137 21.2798 101.137 20.936L102.195 21.2005C101.128 21.3768 100.264 21.5267 99.6032 21.6501C98.9419 21.7647 98.4086 21.8705 98.003 21.9675C97.5974 22.0645 97.2404 22.1703 96.9318 22.2849C96.5792 22.4259 96.2926 22.5802 96.0722 22.7477C95.8606 22.9064 95.7019 23.0828 95.5961 23.2767C95.4992 23.4707 95.4507 23.6867 95.4507 23.9247C95.4507 24.2509 95.53 24.533 95.6887 24.7711C95.8562 25.0003 96.0899 25.1766 96.3896 25.3001C96.6894 25.4235 97.0464 25.4852 97.4608 25.4852ZM113.463 28.3417C112.343 28.3417 111.431 28.1521 110.726 27.773C110.02 27.3939 109.469 26.9135 109.073 26.3316C108.685 25.7497 108.407 25.1458 108.239 24.5198C108.072 23.885 107.971 23.3076 107.935 22.7874C107.9 22.2673 107.882 21.8881 107.882 21.6501V13.6361H111.532V20.3806C111.532 20.7068 111.55 21.1255 111.585 21.6369C111.621 22.1394 111.731 22.6464 111.916 23.1577C112.101 23.669 112.401 24.0966 112.815 24.4405C113.238 24.7843 113.833 24.9562 114.6 24.9562C114.909 24.9562 115.24 24.9077 115.592 24.8108C115.945 24.7138 116.276 24.5286 116.584 24.2553C116.893 23.9732 117.144 23.5632 117.338 23.0255C117.541 22.4788 117.642 21.7647 117.642 20.8831L119.705 21.8617C119.705 22.9902 119.476 24.0481 119.017 25.0356C118.559 26.023 117.867 26.8209 116.941 27.4292C116.024 28.0375 114.865 28.3417 113.463 28.3417ZM118.092 27.9185V23.1841H117.642V13.6361H121.266V27.9185H118.092ZM129.378 27.9185V12.2343H123.374V8.87525H138.979V12.2343H132.975V27.9185H129.378ZM145.625 28.3153C144.162 28.3153 142.87 28.0023 141.75 27.3763C140.639 26.7415 139.767 25.8731 139.132 24.7711C138.506 23.6602 138.193 22.3907 138.193 20.9624C138.193 19.4019 138.502 18.0442 139.119 16.8893C139.736 15.7344 140.587 14.8395 141.671 14.2047C142.755 13.5611 144.003 13.2393 145.414 13.2393C146.912 13.2393 148.186 13.592 149.235 14.2973C150.285 15.0026 151.06 15.9944 151.563 17.2728C152.065 18.5512 152.242 20.0544 152.092 21.7824H148.535V20.4599C148.535 19.0052 148.301 17.9605 147.834 17.3257C147.375 16.6821 146.621 16.3603 145.572 16.3603C144.347 16.3603 143.443 16.735 142.861 17.4844C142.288 18.225 142.002 19.3226 142.002 20.7773C142.002 22.1086 142.288 23.1401 142.861 23.8718C143.443 24.5948 144.294 24.9562 145.414 24.9562C146.119 24.9562 146.723 24.8019 147.225 24.4934C147.728 24.1848 148.111 23.7396 148.376 23.1577L151.973 24.1892C151.435 25.494 150.584 26.5079 149.421 27.2308C148.266 27.9538 147 28.3153 145.625 28.3153ZM140.891 21.7824V19.111H150.359V21.7824H140.891ZM161.373 28.3153C159.892 28.3153 158.623 27.9846 157.565 27.3234C156.507 26.6622 155.696 25.7629 155.131 24.6256C154.567 23.4883 154.285 22.2055 154.285 20.7773C154.285 19.3314 154.576 18.0398 155.158 16.9025C155.748 15.7652 156.577 14.8704 157.644 14.2179C158.711 13.5655 159.971 13.2393 161.426 13.2393C163.11 13.2393 164.521 13.6669 165.658 14.5221C166.804 15.3685 167.536 16.5278 167.853 18.0001L164.256 18.9523C164.045 18.2117 163.674 17.6343 163.145 17.2199C162.625 16.8055 162.035 16.5984 161.373 16.5984C160.615 16.5984 159.994 16.7835 159.509 17.1538C159.024 17.5153 158.667 18.0134 158.437 18.6481C158.208 19.2741 158.094 19.9838 158.094 20.7773C158.094 22.0204 158.367 23.0299 158.914 23.8057C159.469 24.5727 160.289 24.9562 161.373 24.9562C162.184 24.9562 162.802 24.7711 163.225 24.4008C163.648 24.0305 163.965 23.5015 164.177 22.8139L167.853 23.5809C167.448 25.0973 166.681 26.2655 165.552 27.0854C164.424 27.9053 163.031 28.3153 161.373 28.3153ZM180.231 27.9185V21.174C180.231 20.8478 180.214 20.4335 180.178 19.9309C180.143 19.4196 180.033 18.9082 179.848 18.3969C179.663 17.8855 179.359 17.4579 178.935 17.1141C178.521 16.7703 177.93 16.5984 177.163 16.5984C176.855 16.5984 176.524 16.6468 176.171 16.7438C175.819 16.8408 175.488 17.0304 175.18 17.3125C174.871 17.5858 174.615 17.9913 174.413 18.5291C174.219 19.0669 174.122 19.781 174.122 20.6715L172.059 19.6929C172.059 18.5644 172.288 17.5064 172.746 16.519C173.205 15.5316 173.892 14.7337 174.809 14.1254C175.735 13.517 176.899 13.2129 178.301 13.2129C179.42 13.2129 180.333 13.4024 181.038 13.7815C181.743 14.1606 182.29 14.6411 182.678 15.223C183.075 15.8049 183.357 16.4132 183.524 17.048C183.692 17.6739 183.793 18.247 183.828 18.7672C183.864 19.2873 183.881 19.6664 183.881 19.9045V27.9185H180.231ZM170.472 27.9185V8.87525H173.672V18.6614H174.122V27.9185H170.472Z" fill="white"/>
</svg>
