<svg width="187" height="36" viewBox="0 0 187 36" fill="none" xmlns="http://www.w3.org/2000/svg">
<g clip-path="url(#clip0_9_254)">
<path d="M18.9287 3.30612L37.296 14.3337V21.6634L18.9287 32.6939L0.561279 21.6634V14.3338L18.9287 3.30612Z" fill="#35A7FF"/>
<path fill-rule="evenodd" clip-rule="evenodd" d="M0.561279 14.3337L18.9286 3.30612L37.296 14.3337V21.6634L18.9286 32.6939L0.561279 21.6634V14.3337ZM18.9286 28.0146L33.3997 19.3241V16.674L33.3989 16.6735L18.9286 25.3614L4.45829 16.6735L4.45758 16.674V19.3241L18.9286 28.0146ZM18.9286 21.3095L30.0238 14.648L27.321 13.026L18.9286 18.0647L10.5363 13.026L7.83344 14.648L18.9286 21.3095ZM18.9286 14.0128L23.9458 11.0005L18.9286 7.98957L13.9114 11.0005L18.9286 14.0128Z" fill="#2F3061"/>
<path d="M18.9287 3.30612L0.561279 14.3338V21.6634L18.9286 32.6939L18.9287 3.30612Z" fill="#35A7FF" fill-opacity="0.32"/>
<path d="M58.0966 28.3151C56.686 28.3151 55.412 28.0682 54.2747 27.5745C53.1462 27.072 52.2161 26.3579 51.4844 25.4322C50.7614 24.4976 50.303 23.3868 50.109 22.0996L53.8648 21.5442C54.1293 22.6374 54.6759 23.4793 55.5046 24.07C56.3333 24.6607 57.2767 24.9561 58.3346 24.9561C58.9253 24.9561 59.4984 24.8635 60.0538 24.6784C60.6093 24.4932 61.0633 24.2199 61.4159 23.8584C61.7774 23.497 61.9582 23.0518 61.9582 22.5228C61.9582 22.3288 61.9273 22.1437 61.8656 21.9673C61.8127 21.7822 61.7201 21.6103 61.5879 21.4516C61.4556 21.2929 61.2661 21.143 61.0192 21.002C60.7812 20.8609 60.477 20.7331 60.1067 20.6184L55.1608 19.1638C54.7905 19.058 54.3585 18.9081 53.8648 18.7141C53.3799 18.5202 52.9082 18.2424 52.4497 17.881C51.9913 17.5195 51.6078 17.0434 51.2992 16.4527C50.9995 15.8532 50.8496 15.0994 50.8496 14.1913C50.8496 12.913 51.1714 11.8506 51.815 11.0042C52.4586 10.1579 53.3182 9.52751 54.3937 9.11314C55.4693 8.69877 56.6595 8.496 57.9644 8.50481C59.278 8.52244 60.4506 8.74726 61.4821 9.17926C62.5136 9.61126 63.3776 10.2416 64.0741 11.0704C64.7706 11.8903 65.2731 12.8953 65.5817 14.0855L61.6937 14.7468C61.5526 14.1296 61.2925 13.6095 60.9134 13.1863C60.5343 12.7631 60.0803 12.4413 59.5513 12.2209C59.0311 12.0005 58.4845 11.8815 57.9115 11.8638C57.3472 11.8462 56.8138 11.9255 56.3113 12.1019C55.8176 12.2694 55.412 12.5162 55.0946 12.8424C54.7861 13.1686 54.6318 13.5566 54.6318 14.0062C54.6318 14.4206 54.7596 14.76 55.0153 15.0245C55.271 15.2802 55.5928 15.4873 55.9807 15.646C56.3686 15.8047 56.7653 15.937 57.1709 16.0428L60.477 16.942C60.9707 17.0743 61.5173 17.2506 62.1168 17.471C62.7164 17.6826 63.2894 17.9824 63.836 18.3703C64.3915 18.7494 64.8455 19.2519 65.1981 19.8779C65.5596 20.5038 65.7404 21.2973 65.7404 22.2583C65.7404 23.281 65.5244 24.1758 65.0924 24.9429C64.6692 25.7011 64.0961 26.3314 63.3732 26.834C62.6502 27.3277 61.8303 27.698 60.9134 27.9448C60.0053 28.1917 59.0664 28.3151 58.0966 28.3151ZM68.9115 11.6522V8.47836H72.5086V11.6522H68.9115ZM68.9115 27.9184V13.6359H72.5086V27.9184H68.9115ZM86.2067 27.9184V21.1739C86.2067 20.8477 86.1891 20.4333 86.1538 19.9308C86.1186 19.4194 86.0084 18.9081 85.8232 18.3967C85.6381 17.8854 85.3339 17.4578 84.9107 17.114C84.4964 16.7701 83.9057 16.5982 83.1386 16.5982C82.8301 16.5982 82.4995 16.6467 82.1468 16.7437C81.7941 16.8406 81.4635 17.0302 81.155 17.3123C80.8464 17.5856 80.5907 17.9912 80.3879 18.529C80.194 19.0668 80.097 19.7809 80.097 20.6713L78.034 19.6927C78.034 18.5642 78.2632 17.5063 78.7217 16.5189C79.1801 15.5314 79.8678 14.7335 80.7847 14.1252C81.7104 13.5169 82.8742 13.2127 84.2759 13.2127C85.3956 13.2127 86.3081 13.4023 87.0134 13.7814C87.7187 14.1605 88.2653 14.641 88.6533 15.2229C89.05 15.8047 89.3321 16.4131 89.4996 17.0478C89.6671 17.6738 89.7685 18.2469 89.8038 18.767C89.8391 19.2872 89.8567 19.6663 89.8567 19.9043V27.9184H86.2067ZM76.4471 27.9184V13.6359H79.6474V18.3703H80.097V27.9184H76.4471ZM97.255 28.3151C96.2323 28.3151 95.3639 28.1211 94.6498 27.7332C93.9445 27.3365 93.4067 26.8119 93.0364 26.1595C92.675 25.4983 92.4942 24.7709 92.4942 23.9775C92.4942 23.3162 92.5956 22.7123 92.7984 22.1657C93.0012 21.6191 93.3274 21.1386 93.777 20.7242C94.2355 20.3011 94.8482 19.9484 95.6152 19.6663C96.1442 19.4723 96.7746 19.3004 97.5063 19.1505C98.2381 19.0006 99.0668 18.8596 99.9925 18.7273C100.918 18.5863 101.937 18.432 103.047 18.2645L101.751 18.9786C101.751 18.1322 101.549 17.5107 101.143 17.114C100.737 16.7172 100.059 16.5189 99.1065 16.5189C98.5775 16.5189 98.0265 16.6467 97.4534 16.9024C96.8804 17.158 96.4792 17.6121 96.25 18.2645L92.9968 17.233C93.3582 16.0516 94.0371 15.0906 95.0333 14.35C96.0296 13.6095 97.3873 13.2392 99.1065 13.2392C100.367 13.2392 101.487 13.4331 102.465 13.8211C103.444 14.209 104.185 14.879 104.687 15.8312C104.969 16.3602 105.137 16.8891 105.19 17.4181C105.243 17.9471 105.269 18.5378 105.269 19.1902V27.9184H102.122V24.9825L102.571 25.5909C101.875 26.5518 101.121 27.2483 100.31 27.6803C99.5076 28.1035 98.4893 28.3151 97.255 28.3151ZM98.0221 25.4851C98.6833 25.4851 99.2387 25.3704 99.6884 25.1412C100.147 24.9032 100.508 24.6343 100.773 24.3345C101.046 24.0348 101.231 23.7835 101.328 23.5807C101.513 23.1928 101.619 22.7432 101.646 22.2318C101.681 21.7117 101.698 21.2797 101.698 20.9358L102.756 21.2003C101.69 21.3767 100.826 21.5265 100.164 21.65C99.5032 21.7646 98.9698 21.8704 98.5643 21.9673C98.1587 22.0643 97.8017 22.1701 97.4931 22.2847C97.1404 22.4258 96.8539 22.5801 96.6335 22.7476C96.4219 22.9063 96.2632 23.0826 96.1574 23.2766C96.0604 23.4705 96.012 23.6865 96.012 23.9246C96.012 24.2508 96.0913 24.5329 96.25 24.7709C96.4175 25.0002 96.6511 25.1765 96.9509 25.2999C97.2506 25.4233 97.6077 25.4851 98.0221 25.4851ZM114.024 28.3415C112.905 28.3415 111.992 28.152 111.287 27.7729C110.582 27.3938 110.031 26.9133 109.634 26.3314C109.246 25.7495 108.968 25.1456 108.801 24.5197C108.633 23.8849 108.532 23.3074 108.497 22.7873C108.461 22.2671 108.444 21.888 108.444 21.65V13.6359H112.094V20.3804C112.094 20.7066 112.111 21.1254 112.147 21.6367C112.182 22.1393 112.292 22.6462 112.477 23.1575C112.662 23.6689 112.962 24.0965 113.376 24.4403C113.8 24.7842 114.395 24.9561 115.162 24.9561C115.47 24.9561 115.801 24.9076 116.154 24.8106C116.506 24.7136 116.837 24.5285 117.145 24.2552C117.454 23.9731 117.705 23.5631 117.899 23.0253C118.102 22.4787 118.203 21.7646 118.203 20.8829L120.266 21.8615C120.266 22.99 120.037 24.048 119.579 25.0354C119.12 26.0229 118.428 26.8207 117.502 27.4291C116.586 28.0374 115.426 28.3415 114.024 28.3415ZM118.653 27.9184V23.184H118.203V13.6359H121.827V27.9184H118.653ZM129.939 27.9184V12.2341H123.935V8.8751H139.54V12.2341H133.536V27.9184H129.939ZM146.186 28.3151C144.723 28.3151 143.431 28.0021 142.312 27.3762C141.201 26.7414 140.328 25.873 139.693 24.7709C139.067 23.6601 138.754 22.3905 138.754 20.9623C138.754 19.4018 139.063 18.0441 139.68 16.8891C140.297 15.7342 141.148 14.8393 142.232 14.2046C143.317 13.561 144.564 13.2392 145.975 13.2392C147.474 13.2392 148.748 13.5918 149.797 14.2971C150.846 15.0024 151.622 15.9943 152.124 17.2726C152.627 18.551 152.803 20.0542 152.653 21.7822H149.096V20.4598C149.096 19.0051 148.862 17.9603 148.395 17.3255C147.936 16.682 147.183 16.3602 146.133 16.3602C144.908 16.3602 144.004 16.7349 143.422 17.4842C142.849 18.2248 142.563 19.3224 142.563 20.7771C142.563 22.1084 142.849 23.1399 143.422 23.8717C144.004 24.5946 144.855 24.9561 145.975 24.9561C146.68 24.9561 147.284 24.8018 147.787 24.4932C148.289 24.1846 148.673 23.7394 148.937 23.1575L152.534 24.1891C151.996 25.4939 151.146 26.5077 149.982 27.2307C148.827 27.9536 147.562 28.3151 146.186 28.3151ZM141.452 21.7822V19.1109H150.921V21.7822H141.452ZM161.935 28.3151C160.453 28.3151 159.184 27.9845 158.126 27.3233C157.068 26.662 156.257 25.7628 155.693 24.6255C155.128 23.4882 154.846 22.2054 154.846 20.7771C154.846 19.3313 155.137 18.0397 155.719 16.9024C156.31 15.7651 157.138 14.8702 158.205 14.2178C159.272 13.5654 160.533 13.2392 161.987 13.2392C163.671 13.2392 165.082 13.6668 166.219 14.522C167.365 15.3683 168.097 16.5277 168.415 18L164.817 18.9522C164.606 18.2116 164.236 17.6341 163.707 17.2198C163.186 16.8054 162.596 16.5982 161.935 16.5982C161.176 16.5982 160.555 16.7833 160.07 17.1536C159.585 17.5151 159.228 18.0132 158.999 18.648C158.77 19.274 158.655 19.9837 158.655 20.7771C158.655 22.0202 158.928 23.0297 159.475 23.8055C160.03 24.5726 160.85 24.9561 161.935 24.9561C162.746 24.9561 163.363 24.7709 163.786 24.4007C164.209 24.0304 164.527 23.5014 164.738 22.8137L168.415 23.5807C168.009 25.0971 167.242 26.2653 166.114 27.0852C164.985 27.9051 163.592 28.3151 161.935 28.3151ZM180.793 27.9184V21.1739C180.793 20.8477 180.775 20.4333 180.74 19.9308C180.705 19.4194 180.594 18.9081 180.409 18.3967C180.224 17.8854 179.92 17.4578 179.497 17.114C179.082 16.7701 178.492 16.5982 177.725 16.5982C177.416 16.5982 177.085 16.6467 176.733 16.7437C176.38 16.8406 176.049 17.0302 175.741 17.3123C175.432 17.5856 175.177 17.9912 174.974 18.529C174.78 19.0668 174.683 19.7809 174.683 20.6713L172.62 19.6927C172.62 18.5642 172.849 17.5063 173.308 16.5189C173.766 15.5314 174.454 14.7335 175.371 14.1252C176.296 13.5169 177.46 13.2127 178.862 13.2127C179.982 13.2127 180.894 13.4023 181.599 13.7814C182.305 14.1605 182.851 14.641 183.239 15.2229C183.636 15.8047 183.918 16.4131 184.086 17.0478C184.253 17.6738 184.354 18.2469 184.39 18.767C184.425 19.2872 184.443 19.6663 184.443 19.9043V27.9184H180.793ZM171.033 27.9184V8.8751H174.233V18.6612H174.683V27.9184H171.033Z" fill="#373F51"/>
</g>
<defs>
<clipPath id="clip0_9_254">
<rect width="185.878" height="36" fill="white" transform="translate(0.561279)"/>
</clipPath>
</defs>
</svg>
